<svg xmlns="http://www.w3.org/2000/svg" viewBox="0 0 60 61" id="svg9460868591"><path d="M 59.723 30.299 C 57.789 30.303 55.873 30.118 53.975 29.74 C 52.078 29.363 50.236 28.801 48.448 28.057 C 46.661 27.312 44.964 26.398 43.358 25.314 C 41.75 24.229 40.264 22.998 38.9 21.617 C 37.53 20.244 36.305 18.748 35.228 17.131 C 34.152 15.513 33.244 13.805 32.503 12.007 C 31.762 10.208 31.206 8.353 30.831 6.442 C 30.456 4.533 30.272 2.603 30.277 0.656 C 30.277 0.58 30.25 0.514 30.195 0.459 C 30.142 0.406 30.077 0.377 30 0.377 C 29.923 0.377 29.859 0.406 29.805 0.459 C 29.75 0.514 29.723 0.58 29.723 0.656 C 29.728 2.603 29.544 4.533 29.169 6.442 C 28.795 8.353 28.238 10.208 27.497 12.007 C 26.756 13.805 25.848 15.513 24.772 17.131 C 23.695 18.748 22.47 20.244 21.1 21.617 C 19.736 22.998 18.25 24.229 16.644 25.314 C 15.036 26.398 13.339 27.312 11.552 28.057 C 9.766 28.801 7.922 29.363 6.025 29.74 C 4.127 30.118 2.211 30.303 0.277 30.299 C 0.2 30.299 0.134 30.325 0.081 30.379 C 0.027 30.434 0 30.5 0 30.575 C 0 30.653 0.027 30.719 0.081 30.774 C 0.134 30.827 0.2 30.854 0.277 30.854 C 2.211 30.849 4.127 31.035 6.025 31.412 C 7.922 31.79 9.764 32.351 11.552 33.097 C 13.339 33.841 15.036 34.756 16.642 35.84 C 18.25 36.923 19.736 38.155 21.1 39.536 C 22.47 40.909 23.695 42.405 24.772 44.021 C 25.848 45.64 26.756 47.348 27.497 49.146 C 28.238 50.945 28.795 52.799 29.169 54.71 C 29.544 56.62 29.728 58.55 29.723 60.497 C 29.723 60.572 29.75 60.638 29.805 60.693 C 29.859 60.747 29.923 60.774 30 60.774 C 30.077 60.774 30.142 60.747 30.195 60.693 C 30.25 60.638 30.277 60.572 30.277 60.497 C 30.277 44.152 43.486 30.854 59.723 30.854 C 59.8 30.854 59.866 30.827 59.919 30.774 C 59.973 30.719 60 30.653 60 30.575 C 60 30.5 59.973 30.434 59.919 30.379 C 59.866 30.325 59.8 30.299 59.723 30.299 Z M 30 56.378 C 29.783 54.754 29.434 53.163 28.958 51.598 C 28.481 50.033 27.88 48.518 27.156 47.052 C 26.433 45.588 25.595 44.191 24.645 42.864 C 23.694 41.536 22.642 40.296 21.489 39.141 C 20.344 37.982 19.113 36.923 17.794 35.967 C 16.477 35.011 15.091 34.168 13.636 33.44 C 12.181 32.711 10.677 32.107 9.125 31.628 C 7.572 31.146 5.989 30.796 4.38 30.575 C 5.991 30.357 7.572 30.006 9.125 29.525 C 10.678 29.045 12.181 28.441 13.638 27.713 C 15.092 26.983 16.478 26.142 17.795 25.184 C 19.114 24.228 20.345 23.169 21.491 22.01 C 22.644 20.857 23.694 19.616 24.645 18.29 C 25.595 16.964 26.431 15.568 27.155 14.103 C 27.88 12.639 28.48 11.126 28.956 9.563 C 29.434 7.999 29.781 6.408 30 4.788 C 30.219 6.408 30.567 7.999 31.044 9.563 C 31.52 11.126 32.122 12.639 32.845 14.103 C 33.569 15.568 34.405 16.964 35.356 18.29 C 36.306 19.616 37.358 20.857 38.509 22.01 C 39.656 23.171 40.887 24.229 42.206 25.185 C 43.525 26.143 44.913 26.986 46.369 27.715 C 47.825 28.443 49.33 29.047 50.884 29.526 C 52.437 30.008 54.02 30.357 55.631 30.575 C 42.356 32.409 31.82 43.015 30 56.378 Z" fill="currentColor"/></svg>