<svg xmlns="http://www.w3.org/2000/svg" viewBox="0 0 80 81" id="svg1398380040"><path d="M 79.631 40.233 C 77.052 40.239 74.498 39.993 71.967 39.491 C 69.438 38.99 66.981 38.244 64.598 37.257 C 62.215 36.267 59.952 35.053 57.81 33.614 C 55.667 32.173 53.685 30.538 51.867 28.704 C 50.04 26.881 48.406 24.895 46.971 22.748 C 45.535 20.599 44.325 18.331 43.338 15.944 C 42.35 13.554 41.608 11.092 41.108 8.554 C 40.608 6.019 40.362 3.456 40.369 0.871 C 40.369 0.771 40.333 0.683 40.26 0.61 C 40.19 0.539 40.102 0.501 40 0.501 C 39.898 0.501 39.812 0.539 39.74 0.61 C 39.667 0.683 39.631 0.771 39.631 0.871 C 39.638 3.456 39.392 6.019 38.892 8.554 C 38.394 11.092 37.65 13.554 36.662 15.944 C 35.675 18.331 34.465 20.599 33.029 22.748 C 31.594 24.895 29.96 26.881 28.133 28.704 C 26.315 30.538 24.333 32.173 22.192 33.614 C 20.048 35.053 17.785 36.267 15.402 37.257 C 13.021 38.244 10.562 38.99 8.033 39.491 C 5.502 39.993 2.948 40.239 0.369 40.233 C 0.267 40.233 0.179 40.268 0.108 40.339 C 0.035 40.412 0 40.5 0 40.6 C 0 40.703 0.035 40.79 0.108 40.863 C 0.179 40.934 0.267 40.97 0.369 40.97 C 2.948 40.964 5.502 41.21 8.033 41.711 C 10.562 42.213 13.019 42.958 15.402 43.948 C 17.785 44.936 20.048 46.151 22.19 47.59 C 24.333 49.029 26.315 50.665 28.133 52.498 C 29.96 54.322 31.594 56.308 33.029 58.455 C 34.465 60.604 35.675 62.872 36.662 65.259 C 37.65 67.648 38.394 70.111 38.892 72.648 C 39.392 75.184 39.638 77.746 39.631 80.332 C 39.631 80.432 39.667 80.52 39.74 80.593 C 39.812 80.664 39.898 80.699 40 80.699 C 40.102 80.699 40.19 80.664 40.26 80.593 C 40.333 80.52 40.369 80.432 40.369 80.332 C 40.369 58.628 57.981 40.97 79.631 40.97 C 79.733 40.97 79.821 40.934 79.892 40.863 C 79.965 40.79 80 40.703 80 40.6 C 80 40.5 79.965 40.412 79.892 40.339 C 79.821 40.268 79.733 40.233 79.631 40.233 Z M 40 74.862 C 39.71 72.707 39.246 70.593 38.61 68.515 C 37.975 66.437 37.173 64.426 36.208 62.479 C 35.244 60.535 34.127 58.68 32.86 56.918 C 31.592 55.155 30.19 53.507 28.652 51.974 C 27.125 50.435 25.483 49.029 23.725 47.76 C 21.969 46.49 20.121 45.37 18.181 44.403 C 16.242 43.436 14.235 42.634 12.167 41.997 C 10.096 41.358 7.985 40.893 5.84 40.6 C 7.988 40.31 10.096 39.844 12.167 39.205 C 14.238 38.568 16.242 37.766 18.183 36.799 C 20.123 35.83 21.971 34.713 23.727 33.441 C 25.485 32.171 27.127 30.766 28.654 29.226 C 30.192 27.696 31.592 26.048 32.86 24.287 C 34.127 22.526 35.242 20.672 36.206 18.728 C 37.173 16.783 37.973 14.774 38.608 12.698 C 39.246 10.622 39.708 8.509 40 6.357 C 40.292 8.509 40.756 10.622 41.392 12.698 C 42.027 14.774 42.829 16.783 43.794 18.728 C 44.758 20.672 45.873 22.526 47.142 24.287 C 48.408 26.048 49.81 27.696 51.346 29.226 C 52.875 30.768 54.517 32.173 56.275 33.443 C 58.033 34.715 59.883 35.834 61.825 36.801 C 63.767 37.768 65.773 38.57 67.846 39.207 C 69.917 39.846 72.027 40.31 74.175 40.6 C 56.475 43.035 42.427 57.118 40 74.862 Z" fill="currentColor"/></svg>