<svg xmlns="http://www.w3.org/2000/svg" viewBox="0 0 62 80" id="svg449628575"><path d="M 61.28 40.124 C 61.282 40.117 61.282 40.111 61.28 40.105 C 61.29 40.072 61.294 40.04 61.297 40.005 C 61.294 39.971 61.29 39.94 61.28 39.907 C 61.282 39.9 61.282 39.894 61.28 39.888 C 61.269 39.856 61.255 39.827 61.236 39.8 L 30.926 0.127 L 30.915 0.117 C 30.903 0.102 30.888 0.088 30.874 0.077 C 30.809 0.025 30.738 0 30.657 0 C 30.575 0 30.502 0.025 30.44 0.077 C 30.425 0.088 30.41 0.102 30.398 0.117 L 30.385 0.127 L 0.071 39.794 C 0.05 39.821 0.035 39.85 0.025 39.882 C 0.025 39.888 0.025 39.894 0.025 39.9 C 0.017 39.932 0.01 39.965 0.01 39.998 L 0 39.998 C 0 40.032 0.006 40.065 0.015 40.099 C 0.015 40.105 0.015 40.111 0.015 40.117 C 0.025 40.149 0.04 40.178 0.061 40.203 L 30.362 79.87 C 30.367 79.874 30.369 79.878 30.375 79.882 L 30.406 79.915 L 30.429 79.934 C 30.442 79.945 30.454 79.953 30.469 79.959 L 30.492 79.972 L 30.542 79.991 L 30.563 79.991 C 30.613 80.003 30.663 80.003 30.711 79.991 L 30.732 79.991 L 30.782 79.972 L 30.805 79.959 C 30.819 79.953 30.832 79.945 30.844 79.934 L 30.867 79.915 L 30.901 79.882 C 30.905 79.878 30.909 79.874 30.913 79.87 L 61.215 40.203 C 61.24 40.18 61.263 40.155 61.28 40.124 Z M 30.995 31.639 L 54.129 31.639 L 57.461 35.998 L 30.995 35.998 Z M 30.995 30.945 L 30.995 26.586 L 50.267 26.586 L 53.597 30.945 Z M 30.995 25.891 L 30.995 21.528 L 46.404 21.528 L 49.737 25.889 Z M 30.995 20.833 L 30.995 16.476 L 42.538 16.476 L 45.872 20.833 Z M 30.995 15.779 L 30.995 11.42 L 38.678 11.42 L 42.008 15.781 Z M 30.995 10.723 L 30.995 6.364 L 34.813 6.364 L 38.15 10.725 Z M 30.995 5.667 L 30.995 1.365 L 34.283 5.669 Z M 30.302 39.658 L 1.047 39.658 L 30.302 1.365 Z M 30.995 40.353 L 60.257 40.353 L 30.995 78.647 Z M 30.995 39.658 L 30.995 36.693 L 57.991 36.693 L 60.257 39.658 Z" fill="currentColor"/></svg>